<mxfile host="Electron" agent="Mozilla/5.0 (Macintosh; Intel Mac OS X 10_15_7) AppleWebKit/537.36 (KHTML, like Gecko) draw.io/24.7.17 Chrome/128.0.6613.36 Electron/32.0.1 Safari/537.36" version="24.7.17">
  <diagram name="Seite-1" id="bHmScug8bn_VCg0cK3As">
    <mxGraphModel dx="1583" dy="1583" grid="1" gridSize="10" guides="1" tooltips="1" connect="1" arrows="1" fold="1" page="0" pageScale="1" pageWidth="827" pageHeight="1169" math="0" shadow="0">
      <root>
        <mxCell id="0" />
        <mxCell id="1" parent="0" />
        <mxCell id="2" value="Musikst端ck" style="swimlane;childLayout=stackLayout;horizontal=1;startSize=50;horizontalStack=0;rounded=1;strokeWidth=2;resizeParent=0;resizeLast=1;shadow=0;dashed=0;align=center;arcSize=4;whiteSpace=wrap;html=1;" parent="1" vertex="1">
          <mxGeometry x="-160" y="80" width="120" height="160" as="geometry">
            <mxRectangle x="140" y="355" width="80" height="50" as="alternateBounds" />
          </mxGeometry>
        </mxCell>
        <mxCell id="3" value="&lt;div style=&quot;font-size: 10px;&quot;&gt;&lt;u style=&quot;font-size: 10px;&quot;&gt;&lt;font style=&quot;font-size: 10px;&quot;&gt;ISBN&lt;/font&gt;&lt;/u&gt;&lt;/div&gt;&lt;div style=&quot;font-size: 10px;&quot;&gt;&lt;span style=&quot;font-size: 10px;&quot;&gt;&lt;font style=&quot;font-size: 10px;&quot;&gt;Albumtitel&lt;/font&gt;&lt;/span&gt;&lt;/div&gt;&lt;div style=&quot;font-size: 10px;&quot;&gt;&lt;span style=&quot;font-size: 10px;&quot;&gt;&lt;font style=&quot;font-size: 10px;&quot;&gt;Interpret_ID&lt;/font&gt;&lt;/span&gt;&lt;/div&gt;" style="align=left;strokeColor=none;fillColor=none;spacingLeft=4;fontSize=10;verticalAlign=top;resizable=0;rotatable=0;part=1;html=1;" parent="2" vertex="1">
          <mxGeometry y="50" width="120" height="110" as="geometry" />
        </mxCell>
        <mxCell id="4" style="edgeStyle=orthogonalEdgeStyle;rounded=0;orthogonalLoop=1;jettySize=auto;html=1;entryX=0.5;entryY=1;entryDx=0;entryDy=0;" parent="2" source="2" target="3" edge="1">
          <mxGeometry relative="1" as="geometry" />
        </mxCell>
        <mxCell id="5" value="K端nstler" style="swimlane;childLayout=stackLayout;horizontal=1;startSize=50;horizontalStack=0;rounded=1;strokeWidth=2;resizeParent=0;resizeLast=1;shadow=0;dashed=0;align=center;arcSize=4;whiteSpace=wrap;html=1;" parent="1" vertex="1">
          <mxGeometry x="-320" y="80" width="120" height="160" as="geometry">
            <mxRectangle x="140" y="355" width="80" height="50" as="alternateBounds" />
          </mxGeometry>
        </mxCell>
        <mxCell id="6" value="&lt;div style=&quot;font-size: 10px;&quot;&gt;&lt;span style=&quot;background-color: initial;&quot;&gt;&lt;u&gt;ArtistID&lt;/u&gt;&lt;/span&gt;&lt;br&gt;&lt;/div&gt;" style="align=left;strokeColor=none;fillColor=none;spacingLeft=4;fontSize=10;verticalAlign=top;resizable=0;rotatable=0;part=1;html=1;" parent="5" vertex="1">
          <mxGeometry y="50" width="120" height="110" as="geometry" />
        </mxCell>
        <mxCell id="7" style="edgeStyle=orthogonalEdgeStyle;rounded=0;orthogonalLoop=1;jettySize=auto;html=1;entryX=0.5;entryY=1;entryDx=0;entryDy=0;" parent="5" source="5" target="6" edge="1">
          <mxGeometry relative="1" as="geometry" />
        </mxCell>
        <mxCell id="tSDBSkMowNK7ZPbbX2Du-14" value="CD" style="swimlane;childLayout=stackLayout;horizontal=1;startSize=50;horizontalStack=0;rounded=1;strokeWidth=2;resizeParent=0;resizeLast=1;shadow=0;dashed=0;align=center;arcSize=4;whiteSpace=wrap;html=1;" parent="1" vertex="1">
          <mxGeometry y="80" width="120" height="100" as="geometry">
            <mxRectangle x="140" y="355" width="80" height="50" as="alternateBounds" />
          </mxGeometry>
        </mxCell>
        <mxCell id="tSDBSkMowNK7ZPbbX2Du-15" value="Interpret&lt;div&gt;&lt;u&gt;DiskID&lt;/u&gt;&lt;/div&gt;" style="align=left;strokeColor=none;fillColor=none;spacingLeft=4;fontSize=10;verticalAlign=top;resizable=0;rotatable=0;part=1;html=1;" parent="tSDBSkMowNK7ZPbbX2Du-14" vertex="1">
          <mxGeometry y="50" width="120" height="50" as="geometry" />
        </mxCell>
        <mxCell id="tSDBSkMowNK7ZPbbX2Du-16" style="edgeStyle=orthogonalEdgeStyle;rounded=0;orthogonalLoop=1;jettySize=auto;html=1;entryX=0.5;entryY=1;entryDx=0;entryDy=0;" parent="tSDBSkMowNK7ZPbbX2Du-14" source="tSDBSkMowNK7ZPbbX2Du-14" target="tSDBSkMowNK7ZPbbX2Du-15" edge="1">
          <mxGeometry relative="1" as="geometry" />
        </mxCell>
        <mxCell id="39" style="edgeStyle=orthogonalEdgeStyle;html=1;" parent="1" source="tSDBSkMowNK7ZPbbX2Du-59" target="38" edge="1">
          <mxGeometry relative="1" as="geometry" />
        </mxCell>
        <mxCell id="tSDBSkMowNK7ZPbbX2Du-59" value="CD" style="swimlane;childLayout=stackLayout;horizontal=1;startSize=50;horizontalStack=0;rounded=1;strokeWidth=2;resizeParent=0;resizeLast=1;shadow=0;dashed=0;align=center;arcSize=4;whiteSpace=wrap;html=1;" parent="1" vertex="1">
          <mxGeometry x="980" y="-750" width="120" height="100" as="geometry">
            <mxRectangle x="140" y="355" width="80" height="50" as="alternateBounds" />
          </mxGeometry>
        </mxCell>
        <mxCell id="tSDBSkMowNK7ZPbbX2Du-60" value="Interpret&lt;br&gt;&lt;u&gt;DiskID&lt;/u&gt;" style="align=left;strokeColor=none;fillColor=none;spacingLeft=4;fontSize=10;verticalAlign=top;resizable=0;rotatable=0;part=1;html=1;" parent="tSDBSkMowNK7ZPbbX2Du-59" vertex="1">
          <mxGeometry y="50" width="120" height="50" as="geometry" />
        </mxCell>
        <mxCell id="tSDBSkMowNK7ZPbbX2Du-61" style="edgeStyle=orthogonalEdgeStyle;rounded=0;orthogonalLoop=1;jettySize=auto;html=1;entryX=0.5;entryY=1;entryDx=0;entryDy=0;" parent="tSDBSkMowNK7ZPbbX2Du-59" source="tSDBSkMowNK7ZPbbX2Du-59" target="tSDBSkMowNK7ZPbbX2Du-60" edge="1">
          <mxGeometry relative="1" as="geometry" />
        </mxCell>
        <mxCell id="tSDBSkMowNK7ZPbbX2Du-73" value="Musikst端ck" style="swimlane;childLayout=stackLayout;horizontal=1;startSize=50;horizontalStack=0;rounded=1;strokeWidth=2;resizeParent=0;resizeLast=1;shadow=0;dashed=0;align=center;arcSize=4;whiteSpace=wrap;html=1;" parent="1" vertex="1">
          <mxGeometry x="1680" y="-190" width="120" height="100" as="geometry">
            <mxRectangle x="140" y="355" width="80" height="50" as="alternateBounds" />
          </mxGeometry>
        </mxCell>
        <mxCell id="tSDBSkMowNK7ZPbbX2Du-74" value="&lt;div style=&quot;font-size: 10px;&quot;&gt;Titel&lt;/div&gt;&lt;div style=&quot;font-size: 10px;&quot;&gt;Interpreten&lt;/div&gt;" style="align=left;strokeColor=none;fillColor=none;spacingLeft=4;fontSize=10;verticalAlign=top;resizable=0;rotatable=0;part=1;html=1;" parent="tSDBSkMowNK7ZPbbX2Du-73" vertex="1">
          <mxGeometry y="50" width="120" height="50" as="geometry" />
        </mxCell>
        <mxCell id="tSDBSkMowNK7ZPbbX2Du-75" style="edgeStyle=orthogonalEdgeStyle;rounded=0;orthogonalLoop=1;jettySize=auto;html=1;entryX=0.5;entryY=1;entryDx=0;entryDy=0;" parent="tSDBSkMowNK7ZPbbX2Du-73" source="tSDBSkMowNK7ZPbbX2Du-73" target="tSDBSkMowNK7ZPbbX2Du-74" edge="1">
          <mxGeometry relative="1" as="geometry" />
        </mxCell>
        <mxCell id="tSDBSkMowNK7ZPbbX2Du-77" value="Ausleihen" style="swimlane;childLayout=stackLayout;horizontal=1;startSize=50;horizontalStack=0;rounded=1;strokeWidth=2;resizeParent=0;resizeLast=1;shadow=0;dashed=0;align=center;arcSize=4;whiteSpace=wrap;html=1;" parent="1" vertex="1">
          <mxGeometry x="1630" y="-480" width="120" height="170" as="geometry">
            <mxRectangle x="140" y="355" width="80" height="50" as="alternateBounds" />
          </mxGeometry>
        </mxCell>
        <mxCell id="tSDBSkMowNK7ZPbbX2Du-78" value="&lt;div&gt;Vorname&amp;nbsp;&lt;/div&gt;&lt;div&gt;Nachname&lt;/div&gt;&lt;div&gt;Adresse&lt;/div&gt;&lt;div&gt;TelNr&lt;/div&gt;&lt;div&gt;BirthDate&lt;/div&gt;&lt;div&gt;Ausleihe&lt;/div&gt;&lt;div&gt;R端ckgabe&lt;/div&gt;&lt;div&gt;&lt;br&gt;&lt;/div&gt;" style="align=left;strokeColor=none;fillColor=none;spacingLeft=4;fontSize=10;verticalAlign=top;resizable=0;rotatable=0;part=1;html=1;" parent="tSDBSkMowNK7ZPbbX2Du-77" vertex="1">
          <mxGeometry y="50" width="120" height="120" as="geometry" />
        </mxCell>
        <mxCell id="tSDBSkMowNK7ZPbbX2Du-79" style="edgeStyle=orthogonalEdgeStyle;rounded=0;orthogonalLoop=1;jettySize=auto;html=1;entryX=0.5;entryY=1;entryDx=0;entryDy=0;" parent="tSDBSkMowNK7ZPbbX2Du-77" source="tSDBSkMowNK7ZPbbX2Du-77" target="tSDBSkMowNK7ZPbbX2Du-78" edge="1">
          <mxGeometry relative="1" as="geometry" />
        </mxCell>
        <mxCell id="tSDBSkMowNK7ZPbbX2Du-81" value="Buch" style="swimlane;childLayout=stackLayout;horizontal=1;startSize=50;horizontalStack=0;rounded=1;strokeWidth=2;resizeParent=0;resizeLast=1;shadow=0;dashed=0;align=center;arcSize=4;whiteSpace=wrap;html=1;" parent="1" vertex="1">
          <mxGeometry x="1070" y="230" width="120" height="220" as="geometry">
            <mxRectangle x="140" y="355" width="80" height="50" as="alternateBounds" />
          </mxGeometry>
        </mxCell>
        <mxCell id="tSDBSkMowNK7ZPbbX2Du-82" value="&lt;font style=&quot;font-size: 10px;&quot;&gt;Titel&lt;/font&gt;&lt;div style=&quot;font-size: 10px;&quot;&gt;&lt;font style=&quot;font-size: 10px;&quot;&gt;Seiten&lt;/font&gt;&lt;/div&gt;&lt;div style=&quot;font-size: 10px;&quot;&gt;&lt;font style=&quot;font-size: 10px;&quot;&gt;Autor_ID&lt;/font&gt;&lt;/div&gt;&lt;div style=&quot;font-size: 10px;&quot;&gt;&lt;font style=&quot;font-size: 10px;&quot;&gt;Jahr&lt;/font&gt;&lt;/div&gt;&lt;div style=&quot;font-size: 10px;&quot;&gt;&lt;font style=&quot;font-size: 10px;&quot;&gt;Verlag_ID&lt;/font&gt;&lt;/div&gt;&lt;div style=&quot;font-size: 10px;&quot;&gt;&lt;font style=&quot;font-size: 10px;&quot;&gt;Lang&lt;/font&gt;&lt;/div&gt;&lt;div style=&quot;font-size: 10px;&quot;&gt;Umschlag&lt;/div&gt;&lt;div style=&quot;font-size: 10px;&quot;&gt;&lt;span style=&quot;background-color: initial;&quot;&gt;ISBN&lt;/span&gt;&lt;/div&gt;&lt;div style=&quot;font-size: 10px;&quot;&gt;&lt;span style=&quot;background-color: initial;&quot;&gt;UDK&lt;/span&gt;&lt;/div&gt;&lt;div style=&quot;font-size: 10px;&quot;&gt;&lt;span style=&quot;background-color: initial;&quot;&gt;Serie&lt;/span&gt;&lt;/div&gt;&lt;div style=&quot;font-size: 10px;&quot;&gt;&lt;span style=&quot;background-color: initial;&quot;&gt;Anmerkungen&lt;/span&gt;&lt;br&gt;&lt;/div&gt;&lt;div style=&quot;font-size: 10px;&quot;&gt;&lt;u&gt;BuchID&lt;/u&gt;&lt;/div&gt;" style="align=left;strokeColor=none;fillColor=none;spacingLeft=4;fontSize=10;verticalAlign=top;resizable=0;rotatable=0;part=1;html=1;" parent="tSDBSkMowNK7ZPbbX2Du-81" vertex="1">
          <mxGeometry y="50" width="120" height="170" as="geometry" />
        </mxCell>
        <mxCell id="tSDBSkMowNK7ZPbbX2Du-83" style="edgeStyle=orthogonalEdgeStyle;rounded=0;orthogonalLoop=1;jettySize=auto;html=1;entryX=0.5;entryY=1;entryDx=0;entryDy=0;" parent="tSDBSkMowNK7ZPbbX2Du-81" source="tSDBSkMowNK7ZPbbX2Du-81" target="tSDBSkMowNK7ZPbbX2Du-82" edge="1">
          <mxGeometry relative="1" as="geometry" />
        </mxCell>
        <mxCell id="tSDBSkMowNK7ZPbbX2Du-102" style="edgeStyle=orthogonalEdgeStyle;rounded=0;orthogonalLoop=1;jettySize=auto;html=1;entryX=0.5;entryY=1;entryDx=0;entryDy=0;startArrow=none;startFill=0;endArrow=none;endFill=0;" parent="1" source="tSDBSkMowNK7ZPbbX2Du-84" target="tSDBSkMowNK7ZPbbX2Du-101" edge="1">
          <mxGeometry relative="1" as="geometry" />
        </mxCell>
        <mxCell id="tSDBSkMowNK7ZPbbX2Du-84" value="Sammelband" style="swimlane;childLayout=stackLayout;horizontal=1;startSize=50;horizontalStack=0;rounded=1;strokeWidth=2;resizeParent=0;resizeLast=1;shadow=0;dashed=0;align=center;arcSize=4;whiteSpace=wrap;html=1;" parent="1" vertex="1">
          <mxGeometry x="1070" y="710" width="120" height="102.5" as="geometry">
            <mxRectangle x="140" y="355" width="80" height="50" as="alternateBounds" />
          </mxGeometry>
        </mxCell>
        <mxCell id="tSDBSkMowNK7ZPbbX2Du-85" value="&lt;div style=&quot;font-size: 10px;&quot;&gt;&lt;span style=&quot;background-color: initial;&quot;&gt;Name&lt;/span&gt;&lt;/div&gt;&lt;div style=&quot;font-size: 10px;&quot;&gt;&lt;span style=&quot;background-color: initial;&quot;&gt;&lt;u&gt;SammelbandID&lt;/u&gt;&lt;/span&gt;&lt;/div&gt;&lt;div style=&quot;font-size: 10px;&quot;&gt;&lt;span style=&quot;background-color: initial;&quot;&gt;BuchID&lt;/span&gt;&lt;br&gt;&lt;/div&gt;&lt;div style=&quot;font-size: 10px;&quot;&gt;&lt;br&gt;&lt;/div&gt;" style="align=left;strokeColor=none;fillColor=none;spacingLeft=4;fontSize=10;verticalAlign=top;resizable=0;rotatable=0;part=1;html=1;" parent="tSDBSkMowNK7ZPbbX2Du-84" vertex="1">
          <mxGeometry y="50" width="120" height="52.5" as="geometry" />
        </mxCell>
        <mxCell id="tSDBSkMowNK7ZPbbX2Du-86" style="edgeStyle=orthogonalEdgeStyle;rounded=0;orthogonalLoop=1;jettySize=auto;html=1;entryX=0.5;entryY=1;entryDx=0;entryDy=0;" parent="tSDBSkMowNK7ZPbbX2Du-84" source="tSDBSkMowNK7ZPbbX2Du-84" target="tSDBSkMowNK7ZPbbX2Du-85" edge="1">
          <mxGeometry relative="1" as="geometry" />
        </mxCell>
        <mxCell id="tSDBSkMowNK7ZPbbX2Du-90" value="Autor" style="swimlane;childLayout=stackLayout;horizontal=1;startSize=50;horizontalStack=0;rounded=1;strokeWidth=2;resizeParent=0;resizeLast=1;shadow=0;dashed=0;align=center;arcSize=4;whiteSpace=wrap;html=1;" parent="1" vertex="1">
          <mxGeometry x="1600" y="200" width="120" height="120" as="geometry">
            <mxRectangle x="840" y="280" width="80" height="50" as="alternateBounds" />
          </mxGeometry>
        </mxCell>
        <mxCell id="tSDBSkMowNK7ZPbbX2Du-91" value="first_name&lt;div&gt;last_name&lt;/div&gt;&lt;div&gt;&lt;u style=&quot;background-color: initial;&quot;&gt;AutorID&lt;/u&gt;&lt;br&gt;&lt;/div&gt;" style="align=left;strokeColor=none;fillColor=none;spacingLeft=4;fontSize=10;verticalAlign=top;resizable=0;rotatable=0;part=1;html=1;" parent="tSDBSkMowNK7ZPbbX2Du-90" vertex="1">
          <mxGeometry y="50" width="120" height="70" as="geometry" />
        </mxCell>
        <mxCell id="tSDBSkMowNK7ZPbbX2Du-92" style="edgeStyle=orthogonalEdgeStyle;rounded=0;orthogonalLoop=1;jettySize=auto;html=1;entryX=0.5;entryY=1;entryDx=0;entryDy=0;" parent="tSDBSkMowNK7ZPbbX2Du-90" source="tSDBSkMowNK7ZPbbX2Du-90" target="tSDBSkMowNK7ZPbbX2Du-91" edge="1">
          <mxGeometry relative="1" as="geometry" />
        </mxCell>
        <mxCell id="tSDBSkMowNK7ZPbbX2Du-94" value="Verlag" style="swimlane;childLayout=stackLayout;horizontal=1;startSize=50;horizontalStack=0;rounded=1;strokeWidth=2;resizeParent=0;resizeLast=1;shadow=0;dashed=0;align=center;arcSize=4;whiteSpace=wrap;html=1;" parent="1" vertex="1">
          <mxGeometry x="1600" y="370" width="120" height="100" as="geometry">
            <mxRectangle x="840" y="280" width="80" height="50" as="alternateBounds" />
          </mxGeometry>
        </mxCell>
        <mxCell id="tSDBSkMowNK7ZPbbX2Du-95" value="Name&lt;div&gt;BuchID&lt;/div&gt;&lt;div&gt;&lt;u&gt;VerlagID&lt;/u&gt;&lt;/div&gt;" style="align=left;strokeColor=none;fillColor=none;spacingLeft=4;fontSize=10;verticalAlign=top;resizable=0;rotatable=0;part=1;html=1;" parent="tSDBSkMowNK7ZPbbX2Du-94" vertex="1">
          <mxGeometry y="50" width="120" height="50" as="geometry" />
        </mxCell>
        <mxCell id="tSDBSkMowNK7ZPbbX2Du-96" style="edgeStyle=orthogonalEdgeStyle;rounded=0;orthogonalLoop=1;jettySize=auto;html=1;entryX=0.5;entryY=1;entryDx=0;entryDy=0;" parent="tSDBSkMowNK7ZPbbX2Du-94" source="tSDBSkMowNK7ZPbbX2Du-94" target="tSDBSkMowNK7ZPbbX2Du-95" edge="1">
          <mxGeometry relative="1" as="geometry" />
        </mxCell>
        <mxCell id="tSDBSkMowNK7ZPbbX2Du-103" style="edgeStyle=orthogonalEdgeStyle;rounded=0;orthogonalLoop=1;jettySize=auto;html=1;entryX=0.5;entryY=1;entryDx=0;entryDy=0;endArrow=none;endFill=0;" parent="1" source="tSDBSkMowNK7ZPbbX2Du-101" target="tSDBSkMowNK7ZPbbX2Du-81" edge="1">
          <mxGeometry relative="1" as="geometry" />
        </mxCell>
        <mxCell id="tSDBSkMowNK7ZPbbX2Du-101" value="hat" style="shape=rhombus;perimeter=rhombusPerimeter;whiteSpace=wrap;html=1;align=center;" parent="1" vertex="1">
          <mxGeometry x="1070" y="540" width="120" height="60" as="geometry" />
        </mxCell>
        <mxCell id="tSDBSkMowNK7ZPbbX2Du-104" value="1" style="text;html=1;align=center;verticalAlign=middle;whiteSpace=wrap;rounded=0;" parent="1" vertex="1">
          <mxGeometry x="1110" y="680" width="60" height="30" as="geometry" />
        </mxCell>
        <mxCell id="tSDBSkMowNK7ZPbbX2Du-105" value="n" style="text;html=1;align=center;verticalAlign=middle;whiteSpace=wrap;rounded=0;" parent="1" vertex="1">
          <mxGeometry x="1110" y="450" width="60" height="30" as="geometry" />
        </mxCell>
        <mxCell id="tSDBSkMowNK7ZPbbX2Du-106" value="hat" style="shape=rhombus;perimeter=rhombusPerimeter;whiteSpace=wrap;html=1;align=center;" parent="1" vertex="1">
          <mxGeometry x="1320" y="250" width="120" height="60" as="geometry" />
        </mxCell>
        <mxCell id="tSDBSkMowNK7ZPbbX2Du-116" value="" style="endArrow=none;html=1;rounded=0;exitX=1;exitY=0.5;exitDx=0;exitDy=0;entryX=-0.004;entryY=0.429;entryDx=0;entryDy=0;entryPerimeter=0;" parent="1" source="tSDBSkMowNK7ZPbbX2Du-106" target="tSDBSkMowNK7ZPbbX2Du-91" edge="1">
          <mxGeometry relative="1" as="geometry">
            <mxPoint x="1200" y="289.79" as="sourcePoint" />
            <mxPoint x="1330" y="290" as="targetPoint" />
          </mxGeometry>
        </mxCell>
        <mxCell id="tSDBSkMowNK7ZPbbX2Du-117" value="1" style="resizable=0;html=1;whiteSpace=wrap;align=right;verticalAlign=bottom;" parent="tSDBSkMowNK7ZPbbX2Du-116" connectable="0" vertex="1">
          <mxGeometry x="1" relative="1" as="geometry">
            <mxPoint x="-10" as="offset" />
          </mxGeometry>
        </mxCell>
        <mxCell id="15" value="1" style="resizable=0;html=1;whiteSpace=wrap;align=right;verticalAlign=bottom;" parent="tSDBSkMowNK7ZPbbX2Du-116" connectable="0" vertex="1">
          <mxGeometry x="1" relative="1" as="geometry">
            <mxPoint x="-9" y="140" as="offset" />
          </mxGeometry>
        </mxCell>
        <mxCell id="17" value="n" style="resizable=0;html=1;whiteSpace=wrap;align=right;verticalAlign=bottom;" parent="tSDBSkMowNK7ZPbbX2Du-116" connectable="0" vertex="1">
          <mxGeometry x="1" relative="1" as="geometry">
            <mxPoint x="-389" y="140" as="offset" />
          </mxGeometry>
        </mxCell>
        <mxCell id="tSDBSkMowNK7ZPbbX2Du-123" value="Regal" style="swimlane;childLayout=stackLayout;horizontal=1;startSize=50;horizontalStack=0;rounded=1;strokeWidth=2;resizeParent=0;resizeLast=1;shadow=0;dashed=0;align=center;arcSize=4;whiteSpace=wrap;html=1;" parent="1" vertex="1">
          <mxGeometry x="540" y="308.75" width="120" height="102.5" as="geometry">
            <mxRectangle x="140" y="355" width="80" height="50" as="alternateBounds" />
          </mxGeometry>
        </mxCell>
        <mxCell id="tSDBSkMowNK7ZPbbX2Du-124" value="&lt;div style=&quot;font-size: 10px;&quot;&gt;&lt;u&gt;RegalNr&lt;/u&gt;&lt;/div&gt;" style="align=left;strokeColor=none;fillColor=none;spacingLeft=4;fontSize=10;verticalAlign=top;resizable=0;rotatable=0;part=1;html=1;" parent="tSDBSkMowNK7ZPbbX2Du-123" vertex="1">
          <mxGeometry y="50" width="120" height="52.5" as="geometry" />
        </mxCell>
        <mxCell id="tSDBSkMowNK7ZPbbX2Du-125" style="edgeStyle=orthogonalEdgeStyle;rounded=0;orthogonalLoop=1;jettySize=auto;html=1;entryX=0.5;entryY=1;entryDx=0;entryDy=0;" parent="tSDBSkMowNK7ZPbbX2Du-123" source="tSDBSkMowNK7ZPbbX2Du-123" target="tSDBSkMowNK7ZPbbX2Du-124" edge="1">
          <mxGeometry relative="1" as="geometry" />
        </mxCell>
        <mxCell id="tSDBSkMowNK7ZPbbX2Du-126" value="liegt" style="shape=rhombus;perimeter=rhombusPerimeter;whiteSpace=wrap;html=1;align=center;" parent="1" vertex="1">
          <mxGeometry x="780" y="330" width="120" height="60" as="geometry" />
        </mxCell>
        <mxCell id="tSDBSkMowNK7ZPbbX2Du-127" value="" style="endArrow=none;html=1;rounded=0;" parent="1" edge="1">
          <mxGeometry relative="1" as="geometry">
            <mxPoint x="660" y="359.52000000000004" as="sourcePoint" />
            <mxPoint x="780" y="360" as="targetPoint" />
          </mxGeometry>
        </mxCell>
        <mxCell id="tSDBSkMowNK7ZPbbX2Du-128" value="1" style="resizable=0;html=1;whiteSpace=wrap;align=right;verticalAlign=bottom;" parent="tSDBSkMowNK7ZPbbX2Du-127" connectable="0" vertex="1">
          <mxGeometry x="1" relative="1" as="geometry">
            <mxPoint x="-100" as="offset" />
          </mxGeometry>
        </mxCell>
        <mxCell id="tSDBSkMowNK7ZPbbX2Du-129" value="" style="endArrow=none;html=1;rounded=0;entryX=-0.001;entryY=0.471;entryDx=0;entryDy=0;entryPerimeter=0;" parent="1" target="tSDBSkMowNK7ZPbbX2Du-82" edge="1">
          <mxGeometry relative="1" as="geometry">
            <mxPoint x="900" y="359.52000000000004" as="sourcePoint" />
            <mxPoint x="1030" y="359.73" as="targetPoint" />
          </mxGeometry>
        </mxCell>
        <mxCell id="tSDBSkMowNK7ZPbbX2Du-130" value="n" style="resizable=0;html=1;whiteSpace=wrap;align=right;verticalAlign=bottom;" parent="tSDBSkMowNK7ZPbbX2Du-129" connectable="0" vertex="1">
          <mxGeometry x="1" relative="1" as="geometry">
            <mxPoint x="-10" as="offset" />
          </mxGeometry>
        </mxCell>
        <mxCell id="13" style="edgeStyle=orthogonalEdgeStyle;html=1;entryX=0;entryY=0.5;entryDx=0;entryDy=0;" parent="1" source="11" target="tSDBSkMowNK7ZPbbX2Du-94" edge="1">
          <mxGeometry relative="1" as="geometry">
            <mxPoint x="1450" y="490" as="targetPoint" />
          </mxGeometry>
        </mxCell>
        <mxCell id="11" value="verlegt" style="shape=rhombus;perimeter=rhombusPerimeter;whiteSpace=wrap;html=1;align=center;" parent="1" vertex="1">
          <mxGeometry x="1320" y="390" width="120" height="60" as="geometry" />
        </mxCell>
        <mxCell id="12" style="edgeStyle=orthogonalEdgeStyle;html=1;exitX=1.003;exitY=0.826;exitDx=0;exitDy=0;exitPerimeter=0;" parent="1" source="tSDBSkMowNK7ZPbbX2Du-82" target="11" edge="1">
          <mxGeometry relative="1" as="geometry" />
        </mxCell>
        <mxCell id="14" style="edgeStyle=orthogonalEdgeStyle;html=1;exitX=1;exitY=0;exitDx=0;exitDy=0;" parent="1" source="tSDBSkMowNK7ZPbbX2Du-82" target="tSDBSkMowNK7ZPbbX2Du-106" edge="1">
          <mxGeometry relative="1" as="geometry">
            <Array as="points">
              <mxPoint x="1220" y="280" />
              <mxPoint x="1220" y="280" />
            </Array>
          </mxGeometry>
        </mxCell>
        <mxCell id="20" value="hat" style="shape=rhombus;perimeter=rhombusPerimeter;whiteSpace=wrap;html=1;align=center;" parent="1" vertex="1">
          <mxGeometry x="1890" y="-170" width="120" height="60" as="geometry" />
        </mxCell>
        <mxCell id="22" value="" style="endArrow=none;html=1;rounded=0;" parent="1" edge="1">
          <mxGeometry relative="1" as="geometry">
            <mxPoint x="1800" y="-140.29" as="sourcePoint" />
            <mxPoint x="1890" y="-140" as="targetPoint" />
          </mxGeometry>
        </mxCell>
        <mxCell id="23" value="m" style="resizable=0;html=1;align=left;verticalAlign=bottom;" parent="22" connectable="0" vertex="1">
          <mxGeometry x="-1" relative="1" as="geometry">
            <mxPoint x="10" as="offset" />
          </mxGeometry>
        </mxCell>
        <mxCell id="25" value="" style="endArrow=none;html=1;rounded=0;entryX=0;entryY=0;entryDx=0;entryDy=0;" parent="1" edge="1">
          <mxGeometry relative="1" as="geometry">
            <mxPoint x="2010" y="-140" as="sourcePoint" />
            <mxPoint x="2110" y="-139.99999999999977" as="targetPoint" />
          </mxGeometry>
        </mxCell>
        <mxCell id="26" value="n" style="resizable=0;html=1;align=left;verticalAlign=bottom;" parent="25" connectable="0" vertex="1">
          <mxGeometry x="-1" relative="1" as="geometry">
            <mxPoint x="80" as="offset" />
          </mxGeometry>
        </mxCell>
        <mxCell id="27" value="Track" style="swimlane;childLayout=stackLayout;horizontal=1;startSize=50;horizontalStack=0;rounded=1;strokeWidth=2;resizeParent=0;resizeLast=1;shadow=0;dashed=0;align=center;arcSize=4;whiteSpace=wrap;html=1;" parent="1" vertex="1">
          <mxGeometry x="1460" y="-750" width="120" height="100" as="geometry">
            <mxRectangle x="140" y="355" width="80" height="50" as="alternateBounds" />
          </mxGeometry>
        </mxCell>
        <mxCell id="28" value="&lt;span style=&quot;background-color: initial;&quot;&gt;Track&lt;br&gt;DiskID&lt;br&gt;&lt;/span&gt;" style="align=left;strokeColor=none;fillColor=none;spacingLeft=4;fontSize=10;verticalAlign=top;resizable=0;rotatable=0;part=1;html=1;" parent="27" vertex="1">
          <mxGeometry y="50" width="120" height="50" as="geometry" />
        </mxCell>
        <mxCell id="29" style="edgeStyle=orthogonalEdgeStyle;rounded=0;orthogonalLoop=1;jettySize=auto;html=1;entryX=0.5;entryY=1;entryDx=0;entryDy=0;" parent="27" source="27" target="28" edge="1">
          <mxGeometry relative="1" as="geometry" />
        </mxCell>
        <mxCell id="31" value="Interpret" style="swimlane;childLayout=stackLayout;horizontal=1;startSize=50;horizontalStack=0;rounded=1;strokeWidth=2;resizeParent=0;resizeLast=1;shadow=0;dashed=0;align=center;arcSize=4;whiteSpace=wrap;html=1;" parent="1" vertex="1">
          <mxGeometry x="2110" y="-190" width="120" height="100" as="geometry">
            <mxRectangle x="140" y="355" width="80" height="50" as="alternateBounds" />
          </mxGeometry>
        </mxCell>
        <mxCell id="32" value="&lt;div style=&quot;font-size: 10px;&quot;&gt;&lt;span style=&quot;background-color: initial;&quot;&gt;Albumtitel&lt;/span&gt;&lt;br&gt;&lt;/div&gt;&lt;div style=&quot;font-size: 10px;&quot;&gt;&lt;span style=&quot;font-size: 10px;&quot;&gt;&lt;font style=&quot;font-size: 10px;&quot;&gt;&lt;u&gt;Interpret_ID&lt;/u&gt;&lt;/font&gt;&lt;/span&gt;&lt;/div&gt;" style="align=left;strokeColor=none;fillColor=none;spacingLeft=4;fontSize=10;verticalAlign=top;resizable=0;rotatable=0;part=1;html=1;" parent="31" vertex="1">
          <mxGeometry y="50" width="120" height="50" as="geometry" />
        </mxCell>
        <mxCell id="33" style="edgeStyle=orthogonalEdgeStyle;rounded=0;orthogonalLoop=1;jettySize=auto;html=1;entryX=0.5;entryY=1;entryDx=0;entryDy=0;" parent="31" source="31" target="32" edge="1">
          <mxGeometry relative="1" as="geometry" />
        </mxCell>
        <mxCell id="34" style="edgeStyle=orthogonalEdgeStyle;rounded=0;orthogonalLoop=1;jettySize=auto;html=1;exitX=0.5;exitY=1;exitDx=0;exitDy=0;" parent="31" source="32" target="32" edge="1">
          <mxGeometry relative="1" as="geometry" />
        </mxCell>
        <mxCell id="35" value="K端nstler" style="swimlane;childLayout=stackLayout;horizontal=1;startSize=50;horizontalStack=0;rounded=1;strokeWidth=2;resizeParent=0;resizeLast=1;shadow=0;dashed=0;align=center;arcSize=4;whiteSpace=wrap;html=1;" parent="1" vertex="1">
          <mxGeometry x="980" y="-390" width="120" height="100" as="geometry">
            <mxRectangle x="140" y="355" width="80" height="50" as="alternateBounds" />
          </mxGeometry>
        </mxCell>
        <mxCell id="36" value="Interpret&lt;br&gt;&lt;u&gt;DiskID&lt;/u&gt;" style="align=left;strokeColor=none;fillColor=none;spacingLeft=4;fontSize=10;verticalAlign=top;resizable=0;rotatable=0;part=1;html=1;" parent="35" vertex="1">
          <mxGeometry y="50" width="120" height="50" as="geometry" />
        </mxCell>
        <mxCell id="37" style="edgeStyle=orthogonalEdgeStyle;rounded=0;orthogonalLoop=1;jettySize=auto;html=1;entryX=0.5;entryY=1;entryDx=0;entryDy=0;" parent="35" source="35" target="36" edge="1">
          <mxGeometry relative="1" as="geometry" />
        </mxCell>
        <mxCell id="40" style="edgeStyle=orthogonalEdgeStyle;html=1;entryX=0;entryY=0;entryDx=0;entryDy=0;" parent="1" source="38" target="28" edge="1">
          <mxGeometry relative="1" as="geometry">
            <mxPoint x="1410" y="-700" as="targetPoint" />
            <Array as="points">
              <mxPoint x="1400" y="-700" />
              <mxPoint x="1400" y="-700" />
            </Array>
          </mxGeometry>
        </mxCell>
        <mxCell id="38" value="hat" style="shape=rhombus;perimeter=rhombusPerimeter;whiteSpace=wrap;html=1;align=center;" parent="1" vertex="1">
          <mxGeometry x="1230" y="-730" width="120" height="60" as="geometry" />
        </mxCell>
        <mxCell id="41" value="1" style="text;strokeColor=none;align=center;fillColor=none;html=1;verticalAlign=middle;whiteSpace=wrap;rounded=0;" parent="1" vertex="1">
          <mxGeometry x="1100" y="-730" width="60" height="30" as="geometry" />
        </mxCell>
        <mxCell id="42" value="n" style="text;strokeColor=none;align=center;fillColor=none;html=1;verticalAlign=middle;whiteSpace=wrap;rounded=0;" parent="1" vertex="1">
          <mxGeometry x="1400" y="-730" width="60" height="30" as="geometry" />
        </mxCell>
      </root>
    </mxGraphModel>
  </diagram>
</mxfile>
